<?xml version="1.0" encoding="UTF-8" standalone="no"?>
<!DOCTYPE svg PUBLIC "-//W3C//DTD SVG 1.1//EN" "http://www.w3.org/Graphics/SVG/1.1/DTD/svg11.dtd">
<svg width="100%" height="100%" viewBox="0 0 1000 1000" version="1.1" xmlns="http://www.w3.org/2000/svg" xmlns:xlink="http://www.w3.org/1999/xlink" xml:space="preserve" xmlns:serif="http://www.serif.com/" style="fill-rule:evenodd;clip-rule:evenodd;stroke-linecap:round;stroke-linejoin:round;stroke-miterlimit:1.5;">
    <path d="M415.465,990C415.465,995.523 410.988,1000 405.465,1000C350.463,1000 84.763,1000 16.18,1000C12.715,1000 9.496,998.205 7.674,995.257C5.852,992.309 5.686,988.628 7.236,985.528C63.387,873.226 429,142 491.056,17.889C492.75,14.501 496.212,12.361 500,12.361C503.788,12.361 507.25,14.501 508.944,17.889C571,142 936.613,873.226 992.764,985.528C994.314,988.628 994.148,992.309 992.326,995.257C990.504,998.205 987.285,1000 983.82,1000C915.237,1000 649.537,1000 594.535,1000C589.012,1000 584.535,995.523 584.535,990C584.535,963.204 584.535,890.007 584.535,863.211C584.535,857.688 589.012,853.211 594.535,853.211C610.62,853.211 642.392,853.211 661.736,853.211C665.202,853.211 668.42,851.416 670.242,848.468C672.064,845.52 672.23,841.839 670.68,838.739C642.477,782.332 539.952,577.282 508.944,515.267C507.25,511.879 503.788,509.739 500,509.739C496.212,509.739 492.75,511.879 491.056,515.267C460.048,577.282 357.523,782.332 329.32,838.739C327.77,841.839 327.936,845.52 329.758,848.468C331.58,851.416 334.798,853.211 338.264,853.211C357.608,853.211 389.38,853.211 405.465,853.211C410.988,853.211 415.465,857.688 415.465,863.211C415.465,890.007 415.465,963.204 415.465,990Z" style="fill:rgb(192,0,0);stroke:rgb(192,0,0);stroke-width:1px;"/>
    <path d="M397.117,981.651L29.689,981.651L500,41.029L970.311,981.651L602.883,981.651L602.883,871.56L677.916,871.56C684.275,871.56 690.181,868.267 693.524,862.857C696.868,857.448 697.172,850.693 694.328,845.005L516.411,489.173C513.303,482.957 506.95,479.03 500,479.03C493.05,479.03 486.697,482.957 483.589,489.173L305.672,845.005C302.828,850.693 303.132,857.448 306.476,862.857C309.819,868.267 315.725,871.56 322.084,871.56L397.117,871.56L397.117,981.651Z" style="fill:white;"/>
    <clipPath id="_clip1">
        <path d="M397.117,981.651L29.689,981.651L500,41.029L970.311,981.651L602.883,981.651L602.883,871.56L677.916,871.56C684.275,871.56 690.181,868.267 693.524,862.857C696.868,857.448 697.172,850.693 694.328,845.005L516.411,489.173C513.303,482.957 506.95,479.03 500,479.03C493.05,479.03 486.697,482.957 483.589,489.173L305.672,845.005C302.828,850.693 303.132,857.448 306.476,862.857C309.819,868.267 315.725,871.56 322.084,871.56L397.117,871.56L397.117,981.651Z"/>
    </clipPath>
    <g clip-path="url(#_clip1)">
        <g>
            <path d="M155.229,706.851L325.001,602.84L456.516,252.431L424.478,237.228L376.464,274.29L155.229,706.851Z" style="fill:rgb(85,85,85);stroke:rgb(255,0,0);stroke-width:1px;"/>
            <path d="M500,22.875L376.464,274.29L424.478,237.228L456.516,252.431L500,204.565L541.464,267.805L500,22.875Z" style="fill:white;stroke:white;stroke-width:1px;"/>
            <path d="M623.041,266.206L500,22.875L541.464,267.805L555.358,234.941L623.041,266.206Z" style="fill:rgb(192,192,192);stroke:rgb(192,192,192);stroke-width:1px;"/>
            <path d="M29.689,981.651L205.707,912.825L325.001,602.84L155.229,706.851L29.689,981.651Z" style="fill:rgb(102,102,102);stroke:rgb(102,102,102);stroke-width:1px;"/>
            <path d="M29.689,981.651L305.873,981.651L224.769,863.295L205.707,912.825L29.689,981.651Z" style="fill:rgb(85,85,85);stroke:rgb(85,85,85);stroke-width:1px;"/>
            <path d="M500,199.224L490.95,408.922L346.708,545.004L456.516,252.431L500,199.224Z" style="fill:rgb(136,136,136);stroke:rgb(136,136,136);stroke-width:1px;"/>
            <path d="M305.873,981.651L397.117,981.651L397.117,871.56L313.417,856.993L317.155,839.842L500,486.771L490.95,408.922L346.708,545.004L224.769,863.295L305.873,981.651Z" style="fill:rgb(51,51,51);stroke:rgb(51,51,51);stroke-width:1px;"/>
            <path d="M682.1,863.295L796.336,981.651L602.883,981.651L602.883,871.56L682.1,863.295Z" style="fill:rgb(51,51,51);stroke:rgb(51,51,51);stroke-width:1px;"/>
            <path d="M500,199.224L490.95,408.922L970.311,981.651L623.041,266.206L555.358,234.941L541.464,267.805L500,199.224Z" style="fill:rgb(51,51,51);stroke:rgb(51,51,51);stroke-width:1px;"/>
            <path d="M796.336,981.651L970.311,981.651L749.311,717.605L682.1,863.295" style="fill:rgb(68,68,68);stroke:rgb(68,68,68);stroke-width:1px;"/>
            <path d="M490.95,408.922L500,486.771L686.706,853.309L749.311,717.605L490.95,408.922Z" style="fill:rgb(119,119,119);stroke:rgb(119,119,119);stroke-width:1px;"/>
        </g>
    </g>
    <path d="M397.117,981.651L29.689,981.651L500,41.029L970.311,981.651L602.883,981.651L602.883,871.56L677.916,871.56C684.275,871.56 690.181,868.267 693.524,862.857C696.868,857.448 697.172,850.693 694.328,845.005L516.411,489.173C513.303,482.957 506.95,479.03 500,479.03C493.05,479.03 486.697,482.957 483.589,489.173L305.672,845.005C302.828,850.693 303.132,857.448 306.476,862.857C309.819,868.267 315.725,871.56 322.084,871.56L397.117,871.56L397.117,981.651Z" style="fill:none;stroke:rgb(192,0,0);stroke-width:1px;"/>
</svg>
